<svg version="1.1" id="Layer_1" xmlns="http://www.w3.org/2000/svg" xmlns:xlink="http://www.w3.org/1999/xlink" x="0px" y="0px"
	 width="100%" viewBox="0 0 226 314" enable-background="new 0 0 226 314" xml:space="preserve">
<path fill="#FFFEFE" opacity="1.000000" stroke="none" 
	d="
M216.000000,315.000000 
	C147.979111,315.000000 79.958206,315.000000 11.849830,314.728302 
	C2.964433,310.771484 2.891151,303.394440 2.904817,295.327240 
	C3.062353,202.333206 3.004546,109.338814 3.006449,16.344507 
	C3.006662,5.932779 5.984635,2.902126 16.287380,2.900960 
	C81.450058,2.893586 146.612732,2.893577 211.775406,2.900644 
	C222.098038,2.901763 225.034576,5.889398 225.034851,16.330584 
	C225.037292,110.824791 225.036270,205.319000 225.035660,299.813202 
	C225.035660,300.979767 225.043808,302.146667 225.020370,303.312836 
	C224.921829,308.213379 222.489273,311.412994 217.897827,313.010895 
	C217.271957,313.228638 216.531433,313.226257 216.006424,313.572296 
	C215.786270,313.717407 215.989349,314.504669 216.000000,315.000000 
M59.123592,277.466522 
	C60.980511,282.347015 63.980602,285.865479 69.673843,285.789551 
	C74.775490,285.721558 79.316597,282.269928 80.870926,276.663116 
	C81.681923,273.737701 82.060471,270.286865 81.302727,267.426025 
	C80.130981,263.002075 78.307404,258.576050 75.890778,254.691879 
	C70.363579,245.808212 64.309914,237.252121 58.326904,228.349960 
	C52.214115,237.326141 45.679100,246.132462 40.076359,255.496582 
	C37.438923,259.904602 35.730885,265.284058 35.133804,270.402039 
	C34.193741,278.460114 38.081966,283.606293 44.675419,285.196991 
	C50.570385,286.619202 53.696091,284.544617 57.750313,276.600159 
	C57.817726,276.468018 58.583000,276.692047 59.123592,277.466522 
M164.843750,283.491669 
	C166.559753,281.055939 168.275757,278.620239 169.964294,276.223511 
	C173.846985,284.550262 177.782394,287.119263 183.973633,285.301697 
	C190.541473,283.373566 194.721375,276.480835 193.014114,268.574402 
	C191.954971,263.669281 189.843002,258.773346 187.224640,254.468781 
	C181.902252,245.718796 175.916275,237.372452 169.649338,228.033554 
	C162.678635,238.909363 155.638168,249.488693 149.099854,260.369751 
	C147.387054,263.220184 146.707626,266.969025 146.459457,270.371338 
	C145.633255,281.698181 154.547012,288.350677 164.843750,283.491669 
M147.897888,136.641922 
	C144.640411,144.306320 146.724167,151.490387 150.641556,158.045853 
	C155.150330,165.590958 160.399551,172.694397 165.348740,179.975006 
	C166.879288,182.226532 168.480240,184.430206 169.995117,186.579422 
	C174.373779,180.028198 178.612854,174.064163 182.441269,167.847244 
	C185.991211,162.082565 189.507004,156.230042 192.280807,150.075043 
	C194.566711,145.002609 193.852798,139.601044 190.735992,134.810135 
	C188.278427,131.032562 184.611618,129.064972 180.164871,129.351074 
	C175.792236,129.632431 172.958313,132.424866 171.173264,136.315247 
	C170.725204,137.291779 170.288422,138.273483 169.635635,139.719940 
	C167.890686,134.235992 165.343643,130.199860 159.746414,129.670898 
	C154.637436,129.188110 150.781326,131.530075 147.897888,136.641922 
M81.063515,138.761871 
	C79.203979,133.190170 75.524544,129.470795 69.535530,129.364838 
	C63.006245,129.249344 60.102577,133.953354 58.445183,139.975327 
	C54.536724,131.140518 50.848362,128.531815 44.726898,129.905212 
	C38.124180,131.386597 33.957951,136.920303 35.173592,145.123947 
	C36.020992,150.842529 38.300365,156.686951 41.277779,161.676987 
	C46.451740,170.348343 52.660130,178.402496 58.379768,186.636215 
	C64.524651,177.486954 70.831825,168.530182 76.655106,159.269135 
	C80.380241,153.344849 83.385147,146.969849 81.063515,138.761871 
M147.265472,39.065338 
	C147.264008,43.167286 146.291992,47.564445 147.433899,51.318615 
	C151.722366,65.417473 162.591141,75.497047 169.787460,88.003761 
	C176.213104,78.384117 182.201889,69.607201 187.983505,60.695858 
	C191.757889,54.878292 194.396271,48.621983 193.031906,41.432129 
	C191.854202,35.225811 187.399734,31.039318 181.679520,30.550457 
	C176.505219,30.108252 173.158844,32.776340 170.628464,39.319725 
	C170.463104,39.747311 170.089523,40.094372 169.623016,40.742577 
	C167.870865,35.446285 165.403885,31.016764 159.316360,30.780455 
	C153.747849,30.564293 149.808731,33.210266 147.265472,39.065338 
M65.748558,31.086218 
	C63.041027,34.035675 60.333500,36.985134 57.854019,39.686165 
	C54.398129,32.101089 50.438408,29.432070 44.190907,31.067814 
	C37.878880,32.720451 34.124187,38.585831 35.109219,46.828930 
	C35.608456,51.006710 36.918182,55.439365 39.100266,58.996975 
	C45.134995,68.835838 51.821133,78.275146 58.300594,87.948326 
	C64.507561,78.649178 70.631584,69.936432 76.216545,60.890839 
	C78.616982,57.003006 80.380821,52.555351 81.581924,48.130764 
	C83.668381,40.444771 77.943802,28.317612 65.748558,31.086218 
M10.399551,36.056202 
	C10.845450,41.011814 11.689276,45.772831 17.233074,47.690231 
	C23.181292,49.747501 28.537781,46.842537 29.948753,40.892475 
	C31.876642,32.762589 28.677319,25.686110 22.421135,24.983973 
	C19.952951,24.706966 17.353575,25.598946 14.143639,26.053556 
	C14.961431,24.182396 15.311621,22.319933 16.390162,21.102980 
	C20.376139,16.605473 24.664339,21.000198 29.443052,21.827585 
	C27.741964,16.953463 24.761169,15.807291 21.022369,15.770948 
	C16.783724,15.729746 13.162671,17.305115 12.088433,21.475046 
	C10.948771,25.898932 10.865474,30.594955 10.399551,36.056202 
M210.579849,268.638092 
	C206.126053,267.221588 202.310638,268.092560 199.591919,272.042358 
	C196.843491,276.035309 196.961151,284.047455 199.725357,287.717255 
	C203.532227,292.771301 208.345413,292.303253 213.733063,289.560089 
	C213.350006,293.738007 211.954254,296.805786 208.017349,296.881592 
	C205.118622,296.937378 202.194092,295.651855 198.667648,294.819183 
	C200.673782,299.811707 204.069336,300.860077 207.910751,300.648315 
	C211.862656,300.430420 215.473251,298.575317 216.102036,294.564087 
	C217.013275,288.750946 217.548981,282.701447 216.912125,276.899048 
	C216.599792,274.053375 213.286392,271.537140 210.579849,268.638092 
M25.260670,67.766006 
	C26.534872,65.083839 28.177851,62.506863 28.981253,59.690399 
	C29.811806,56.778740 29.922207,53.124031 26.315763,52.125267 
	C24.225761,51.546463 21.574905,52.992844 18.979156,53.571857 
	C18.320574,51.609589 16.101805,50.583389 13.143766,51.861099 
	C9.678649,53.357830 9.203635,56.672718 10.472638,59.457966 
	C13.104315,65.234055 16.413960,70.701248 19.783392,76.920273 
	C21.866098,73.474739 23.393566,70.947769 25.260670,67.766006 
M216.361191,250.325790 
	C213.897980,246.133820 211.434769,241.941833 208.642410,237.189713 
	C205.301682,243.181274 202.118286,248.254379 199.607452,253.640991 
	C198.182510,256.697998 197.924133,260.684509 201.941620,262.082672 
	C203.839569,262.743195 206.516251,261.166046 208.732071,260.628937 
	C210.248596,261.135498 212.445923,262.631378 214.383438,262.348389 
	C217.775497,261.852905 218.455139,258.810059 218.054108,255.759552 
	C217.841446,254.141800 217.219482,252.577850 216.361191,250.325790 
z"/>
<path fill="#0D0D0D" opacity="1.000000" stroke="none" 
	d="
M216.482956,315.000000 
	C215.989349,314.504669 215.786270,313.717407 216.006424,313.572296 
	C216.531433,313.226257 217.271957,313.228638 217.897827,313.010895 
	C222.489273,311.412994 224.921829,308.213379 225.020370,303.312836 
	C225.043808,302.146667 225.035660,300.979767 225.035660,299.813202 
	C225.036270,205.319000 225.037292,110.824791 225.034851,16.330584 
	C225.034576,5.889398 222.098038,2.901763 211.775406,2.900644 
	C146.612732,2.893577 81.450058,2.893586 16.287380,2.900960 
	C5.984635,2.902126 3.006662,5.932779 3.006449,16.344507 
	C3.004546,109.338814 3.062353,202.333206 2.904817,295.327240 
	C2.891151,303.394440 2.964433,310.771484 11.381172,314.728302 
	C7.668443,315.000000 4.336885,315.000000 1.003996,315.000000 
	C1.002664,210.390869 1.002664,105.781754 1.002664,1.086315 
	C76.235565,1.086315 151.471252,1.086315 226.853485,1.086315 
	C226.853485,105.666496 226.853485,210.333237 226.853485,315.000000 
	C223.629044,315.000000 220.297485,315.000000 216.482956,315.000000 
z"/>
<path fill="#D50303" opacity="1.000000" stroke="none" 
	d="
M59.073112,277.108185 
	C58.583000,276.692047 57.817726,276.468018 57.750313,276.600159 
	C53.696091,284.544617 50.570385,286.619202 44.675419,285.196991 
	C38.081966,283.606293 34.193741,278.460114 35.133804,270.402039 
	C35.730885,265.284058 37.438923,259.904602 40.076359,255.496582 
	C45.679100,246.132462 52.214115,237.326141 58.326904,228.349960 
	C64.309914,237.252121 70.363579,245.808212 75.890778,254.691879 
	C78.307404,258.576050 80.130981,263.002075 81.302727,267.426025 
	C82.060471,270.286865 81.681923,273.737701 80.870926,276.663116 
	C79.316597,282.269928 74.775490,285.721558 69.673843,285.789551 
	C63.980602,285.865479 60.980511,282.347015 59.073112,277.108185 
z"/>
<path fill="#D50303" opacity="1.000000" stroke="none" 
	d="
M164.540985,283.706665 
	C154.547012,288.350677 145.633255,281.698181 146.459457,270.371338 
	C146.707626,266.969025 147.387054,263.220184 149.099854,260.369751 
	C155.638168,249.488693 162.678635,238.909363 169.649338,228.033554 
	C175.916275,237.372452 181.902252,245.718796 187.224640,254.468781 
	C189.843002,258.773346 191.954971,263.669281 193.014114,268.574402 
	C194.721375,276.480835 190.541473,283.373566 183.973633,285.301697 
	C177.782394,287.119263 173.846985,284.550262 169.964294,276.223511 
	C168.275757,278.620239 166.559753,281.055939 164.540985,283.706665 
z"/>
<path fill="#D50404" opacity="1.000000" stroke="none" 
	d="
M148.034134,136.284225 
	C150.781326,131.530075 154.637436,129.188110 159.746414,129.670898 
	C165.343643,130.199860 167.890686,134.235992 169.635635,139.719940 
	C170.288422,138.273483 170.725204,137.291779 171.173264,136.315247 
	C172.958313,132.424866 175.792236,129.632431 180.164871,129.351074 
	C184.611618,129.064972 188.278427,131.032562 190.735992,134.810135 
	C193.852798,139.601044 194.566711,145.002609 192.280807,150.075043 
	C189.507004,156.230042 185.991211,162.082565 182.441269,167.847244 
	C178.612854,174.064163 174.373779,180.028198 169.995117,186.579422 
	C168.480240,184.430206 166.879288,182.226532 165.348740,179.975006 
	C160.399551,172.694397 155.150330,165.590958 150.641556,158.045853 
	C146.724167,151.490387 144.640411,144.306320 148.034134,136.284225 
z"/>
<path fill="#D50303" opacity="1.000000" stroke="none" 
	d="
M81.165771,139.154297 
	C83.385147,146.969849 80.380241,153.344849 76.655106,159.269135 
	C70.831825,168.530182 64.524651,177.486954 58.379768,186.636215 
	C52.660130,178.402496 46.451740,170.348343 41.277779,161.676987 
	C38.300365,156.686951 36.020992,150.842529 35.173592,145.123947 
	C33.957951,136.920303 38.124180,131.386597 44.726898,129.905212 
	C50.848362,128.531815 54.536724,131.140518 58.445183,139.975327 
	C60.102577,133.953354 63.006245,129.249344 69.535530,129.364838 
	C75.524544,129.470795 79.203979,133.190170 81.165771,139.154297 
z"/>
<path fill="#D50303" opacity="1.000000" stroke="none" 
	d="
M147.434662,38.714329 
	C149.808731,33.210266 153.747849,30.564293 159.316360,30.780455 
	C165.403885,31.016764 167.870865,35.446285 169.623016,40.742577 
	C170.089523,40.094372 170.463104,39.747311 170.628464,39.319725 
	C173.158844,32.776340 176.505219,30.108252 181.679520,30.550457 
	C187.399734,31.039318 191.854202,35.225811 193.031906,41.432129 
	C194.396271,48.621983 191.757889,54.878292 187.983505,60.695858 
	C182.201889,69.607201 176.213104,78.384117 169.787460,88.003761 
	C162.591141,75.497047 151.722366,65.417473 147.433899,51.318615 
	C146.291992,47.564445 147.264008,43.167286 147.434662,38.714329 
z"/>
<path fill="#D50303" opacity="1.000000" stroke="none" 
	d="
M66.110672,30.994766 
	C77.943802,28.317612 83.668381,40.444771 81.581924,48.130764 
	C80.380821,52.555351 78.616982,57.003006 76.216545,60.890839 
	C70.631584,69.936432 64.507561,78.649178 58.300594,87.948326 
	C51.821133,78.275146 45.134995,68.835838 39.100266,58.996975 
	C36.918182,55.439365 35.608456,51.006710 35.109219,46.828930 
	C34.124187,38.585831 37.878880,32.720451 44.190907,31.067814 
	C50.438408,29.432070 54.398129,32.101089 57.854019,39.686165 
	C60.333500,36.985134 63.041027,34.035675 66.110672,30.994766 
z"/>
<path fill="#D71212" opacity="1.000000" stroke="none" 
	d="
M10.360197,35.614166 
	C10.865474,30.594955 10.948771,25.898932 12.088433,21.475046 
	C13.162671,17.305115 16.783724,15.729746 21.022369,15.770948 
	C24.761169,15.807291 27.741964,16.953463 29.443052,21.827585 
	C24.664339,21.000198 20.376139,16.605473 16.390162,21.102980 
	C15.311621,22.319933 14.961431,24.182396 14.143639,26.053556 
	C17.353575,25.598946 19.952951,24.706966 22.421135,24.983973 
	C28.677319,25.686110 31.876642,32.762589 29.948753,40.892475 
	C28.537781,46.842537 23.181292,49.747501 17.233074,47.690231 
	C11.689276,45.772831 10.845450,41.011814 10.360197,35.614166 
M16.562927,43.283283 
	C19.810762,45.431210 22.837326,45.159622 25.377991,42.197887 
	C27.812181,39.360279 28.021824,32.927074 25.211386,30.760466 
	C23.455591,29.406897 20.215252,28.593903 18.197969,29.250158 
	C13.867724,30.658863 13.330506,34.685680 14.115479,38.713707 
	C14.387673,40.110455 15.319852,41.378586 16.562927,43.283283 
z"/>
<path fill="#D71414" opacity="1.000000" stroke="none" 
	d="
M210.955505,268.754944 
	C213.286392,271.537140 216.599792,274.053375 216.912125,276.899048 
	C217.548981,282.701447 217.013275,288.750946 216.102036,294.564087 
	C215.473251,298.575317 211.862656,300.430420 207.910751,300.648315 
	C204.069336,300.860077 200.673782,299.811707 198.667648,294.819183 
	C202.194092,295.651855 205.118622,296.937378 208.017349,296.881592 
	C211.954254,296.805786 213.350006,293.738007 213.733063,289.560089 
	C208.345413,292.303253 203.532227,292.771301 199.725357,287.717255 
	C196.961151,284.047455 196.843491,276.035309 199.591919,272.042358 
	C202.310638,268.092560 206.126053,267.221588 210.955505,268.754944 
M212.232590,285.597351 
	C212.860489,283.290253 214.098480,280.955841 213.996796,278.681366 
	C213.737839,272.889557 208.852875,269.954803 204.399033,272.514709 
	C201.080566,274.422058 199.828262,280.728027 201.994186,284.624390 
	C204.038284,288.301636 207.024307,288.773254 212.232590,285.597351 
z"/>
<path fill="#D50707" opacity="1.000000" stroke="none" 
	d="
M25.090851,68.093399 
	C23.393566,70.947769 21.866098,73.474739 19.783392,76.920273 
	C16.413960,70.701248 13.104315,65.234055 10.472638,59.457966 
	C9.203635,56.672718 9.678649,53.357830 13.143766,51.861099 
	C16.101805,50.583389 18.320574,51.609589 18.979156,53.571857 
	C21.574905,52.992844 24.225761,51.546463 26.315763,52.125267 
	C29.922207,53.124031 29.811806,56.778740 28.981253,59.690399 
	C28.177851,62.506863 26.534872,65.083839 25.090851,68.093399 
z"/>
<path fill="#D50707" opacity="1.000000" stroke="none" 
	d="
M216.571732,250.657715 
	C217.219482,252.577850 217.841446,254.141800 218.054108,255.759552 
	C218.455139,258.810059 217.775497,261.852905 214.383438,262.348389 
	C212.445923,262.631378 210.248596,261.135498 208.732071,260.628937 
	C206.516251,261.166046 203.839569,262.743195 201.941620,262.082672 
	C197.924133,260.684509 198.182510,256.697998 199.607452,253.640991 
	C202.118286,248.254379 205.301682,243.181274 208.642410,237.189713 
	C211.434769,241.941833 213.897980,246.133820 216.571732,250.657715 
z"/>
<path fill="#FEF9F9" opacity="1.000000" stroke="none" 
	d="
M16.256756,42.994370 
	C15.319852,41.378586 14.387673,40.110455 14.115479,38.713707 
	C13.330506,34.685680 13.867724,30.658863 18.197969,29.250158 
	C20.215252,28.593903 23.455591,29.406897 25.211386,30.760466 
	C28.021824,32.927074 27.812181,39.360279 25.377991,42.197887 
	C22.837326,45.159622 19.810762,45.431210 16.256756,42.994370 
z"/>
<path fill="#FEF8F8" opacity="1.000000" stroke="none" 
	d="
M211.948029,285.874451 
	C207.024307,288.773254 204.038284,288.301636 201.994186,284.624390 
	C199.828262,280.728027 201.080566,274.422058 204.399033,272.514709 
	C208.852875,269.954803 213.737839,272.889557 213.996796,278.681366 
	C214.098480,280.955841 212.860489,283.290253 211.948029,285.874451 
z"/>
</svg>